<svg id="Layer_1" data-name="Layer 1" xmlns="http://www.w3.org/2000/svg" viewBox="0 0 7.7565 2.0866">
  <path d="M8.0968,9.963q-.196.2275-.4018.4784t-.4019.5018q-.1963.2508-.3768.4861t-.3307.4345a.5928.5928,0,0,0,.1279.0157c.0531.0021.1278.0032.2211.0032a2.457,2.457,0,0,0,.3522-.025,1.167,1.167,0,0,0,.3189-.0919.8288.8288,0,0,0,.2586-.1861.8448.8448,0,0,0,.1775-.3022h.0625l-.2368.698q-.2744-.0058-.547-.0093t-.5467-.0032q-.1435,0-.2852.0032t-.2852.0093l-.0249-.0372,1.5175-1.92H7.2774a1.6576,1.6576,0,0,0-.2742.0234.8742.8742,0,0,0-.2523.0827.5985.5985,0,0,0-.1964.16.5593.5593,0,0,0-.1089.257H6.4017a.8381.8381,0,0,1,.0016-.11c.0032-.0375.0048-.0736.0048-.109,0-.0664.0032-.1329.0093-.198s.0146-.1313.025-.1977l.2041.0061q.1063.0031.2126.0048t.2009.0016h.1778q.2151,0,.4189-.0032t.4183-.01Z" transform="translate(-6.1785 -9.9263)" fill="#fff"/>
  <path d="M8.6268,11.2159a.171.171,0,0,1,.1231.05.1753.1753,0,1,1-.2464,0A.17.17,0,0,1,8.6268,11.2159Z" transform="translate(-6.1785 -9.9263)" fill="#fff"/>
  <path d="M9.1844,11.0537a.419.419,0,0,1,.07-.1541.306.306,0,0,1,.1044-.0874.3831.3831,0,0,1,.1329-.0373,1.5169,1.5169,0,0,1,.16-.0079.7628.7628,0,0,1,.1594.0172.4361.4361,0,0,1,.1433.0577.31.31,0,0,1,.1029.1063.3235.3235,0,0,1,.0388.1638v.5764a.1768.1768,0,0,0,.0313.1042.1088.1088,0,0,0,.0965.0452.1811.1811,0,0,0,.1106-.0356c.0321-.0239.0629-.0473.0919-.07l.0311.0343-.0715.0736c-.0282.0282-.0577.0552-.0888.0811a.5964.5964,0,0,1-.0951.0654.1942.1942,0,0,1-.0949.0265.1274.1274,0,0,1-.0656-.02.4745.4745,0,0,1-.067-.0483.617.617,0,0,1-.0606-.0593c-.0189-.0207-.0354-.0383-.05-.0532a1.437,1.437,0,0,1-.2243.1247.591.591,0,0,1-.2432.0561.3707.3707,0,0,1-.126-.0218.3345.3345,0,0,1-.1063-.0625.3043.3043,0,0,1-.0746-.0965.2785.2785,0,0,1-.0282-.1278A.2862.2862,0,0,1,9.1328,11.5a.46.46,0,0,1,.1861-.1167,1.0835,1.0835,0,0,1,.2586-.0547q.1446-.0141.2923-.0171v-.2368a.2222.2222,0,0,0-.0717-.1775.266.266,0,0,0-.1807-.0625.1432.1432,0,0,0-.1279.08.3618.3618,0,0,0-.0465.1839Zm.6761.38a.7944.7944,0,0,0-.2086-.0279.5138.5138,0,0,0-.1185.0138.3289.3289,0,0,0-.1063.0455.25.25,0,0,0-.0766.08.22.22,0,0,0-.03.1167.1631.1631,0,0,0,.0734.1512.305.305,0,0,0,.1634.0452.4079.4079,0,0,0,.1823-.0407.7721.7721,0,0,0,.12-.0685Z" transform="translate(-6.1785 -9.9263)" fill="#fff"/>
  <path d="M10.4184,11.9388a.6743.6743,0,0,0,.2009-.0952,1.5032,1.5032,0,0,0,.1747-.1416q.0823-.0781.1594-.1595a2.0552,2.0552,0,0,1,.1621-.1544q-.0717-.0778-.14-.1666a2.0221,2.0221,0,0,0-.1451-.1683.8872.8872,0,0,0-.1667-.1382.5159.5159,0,0,0-.207-.0731v-.0385q.1.0093.1993.0109t.1993.0016c.0582,0,.1158-.0006.1731-.0016s.1149-.0047.173-.0109v.04a.2883.2883,0,0,0-.08.0313.0757.0757,0,0,0-.0468.0686.1671.1671,0,0,0,.0234.07.9221.9221,0,0,0,.056.0936c.0218.0321.0442.0624.067.09a.49.49,0,0,0,.0561.0609c.0207-.0207.0436-.0425.0686-.0657a.8433.8433,0,0,0,.07-.0714.4717.4717,0,0,0,.0561-.08.1818.1818,0,0,0,.0234-.0888.0794.0794,0,0,0-.042-.0717.4125.4125,0,0,0-.0826-.0375v-.04q.08.0093.1634.0109c.055,0,.11.0016.1637.0016.0479,0,.0965,0,.1465-.0016a1.4073,1.4073,0,0,0,.1464-.0109v.0375a.5681.5681,0,0,0-.1916.0715,1.126,1.126,0,0,0-.1682.123c-.0532.0468-.1045.0957-.1545.1465s-.1.0983-.1493.1419q.0589.0717.1291.17a2.0112,2.0112,0,0,0,.1545.19,1.12,1.12,0,0,0,.186.1638.5317.5317,0,0,0,.2275.09v.0372q-.1-.0059-.1977-.0093t-.198-.0032q-.1029,0-.2057.0032t-.2058.0093v-.0372a.278.278,0,0,0,.0561-.0064.2223.2223,0,0,0,.0593-.02.1577.1577,0,0,0,.0468-.0342.069.069,0,0,0,.0186-.0484.2121.2121,0,0,0-.0266-.0949.8105.8105,0,0,0-.0641-.1029c-.0248-.0341-.05-.0674-.0762-.1a1.026,1.026,0,0,1-.0638-.0859c-.0208.0189-.0484.0442-.0827.0763s-.068.0667-.1012.1029a.785.785,0,0,0-.0856.1108.1937.1937,0,0,0-.0359.1026.0726.0726,0,0,0,.017.0484.1171.1171,0,0,0,.0407.0311.1952.1952,0,0,0,.0513.0156.3149.3149,0,0,0,.0531.0048v.0372c-.05-.004-.0994-.0071-.148-.0093s-.0984-.0032-.1481-.0032-.1033,0-.1544.0032-.1023.0053-.1541.0093Z" transform="translate(-6.1785 -9.9263)" fill="#fff"/>
  <path d="M12.3286,11.1877q0-.075-.0048-.1329a.22.22,0,0,0-.0266-.0967.1783.1783,0,0,0-.07-.0638.3574.3574,0,0,0-.1278-.0343v-.0436l.4739-.0311v.9161a.4851.4851,0,0,0,.0122.1231.1279.1279,0,0,0,.0423.0686.182.182,0,0,0,.0762.0327.8128.8128,0,0,0,.1154.0125v.0372c-.0728-.004-.1459-.0072-.22-.0093s-.147-.0032-.22-.0032q-.0717,0-.14.0032c-.0457.0021-.0925.0053-.14.0093v-.0372a.7039.7039,0,0,0,.1063-.0125.1691.1691,0,0,0,.0718-.0327.1339.1339,0,0,0,.04-.0686.49.49,0,0,0,.0124-.1231Z" transform="translate(-6.1785 -9.9263)" fill="#fff"/>
  <path d="M12.9736,11.5678h.0436a1.1674,1.1674,0,0,0,.0981.1278.7978.7978,0,0,0,.12.1122.6344.6344,0,0,0,.14.08.409.409,0,0,0,.1594.0311.45.45,0,0,0,.0827-.0077.2594.2594,0,0,0,.0763-.0266.1639.1639,0,0,0,.056-.05.1329.1329,0,0,0,.0218-.0779.1607.1607,0,0,0-.0576-.1278.5647.5647,0,0,0-.1417-.0872,1.8605,1.8605,0,0,0-.1861-.07,1.1214,1.1214,0,0,1-.186-.0778.5017.5017,0,0,1-.1419-.1109.2441.2441,0,0,1-.0577-.1682.3234.3234,0,0,1,.1045-.2586.3888.3888,0,0,1,.2633-.09.8365.8365,0,0,1,.2291.0314,1.0378,1.0378,0,0,0,.2289.0372l.0188.33h-.0406a.623.623,0,0,0-.0779-.1138.6008.6008,0,0,0-.1044-.0965.5642.5642,0,0,0-.1231-.0685.35.35,0,0,0-.1329-.0266.2873.2873,0,0,0-.14.0343.13.13,0,0,0-.0622.1246.1273.1273,0,0,0,.0577.1063.69.69,0,0,0,.1416.0779q.0843.0359.1861.07a1.0623,1.0623,0,0,1,.186.0826.51.51,0,0,1,.1417.1186.2626.2626,0,0,1,.0576.1727.3913.3913,0,0,1-.0358.1792.2841.2841,0,0,1-.0981.1108.4253.4253,0,0,1-.1449.0574.868.868,0,0,1-.1762.0173A.9284.9284,0,0,1,13.3364,12c-.0457-.0072-.0888-.0162-.13-.0266s-.0784-.02-.1137-.0279-.0664-.0146-.0933-.0189Z" transform="translate(-6.1785 -9.9263)" fill="#fff"/>
</svg>
