<?xml version="1.0" encoding="utf-8"?>
<!-- Generator: Adobe Illustrator 25.2.0, SVG Export Plug-In . SVG Version: 6.00 Build 0)  -->
<svg version="1.1" id="Layer_1" xmlns="http://www.w3.org/2000/svg" xmlns:xlink="http://www.w3.org/1999/xlink" x="0px" y="0px"
	 width="15.7px" height="4.3px" viewBox="0 0 15.7 4.3" style="enable-background:new 0 0 15.7 4.3;" xml:space="preserve">
<style type="text/css">
	.st0{fill:#FFFFFF;}
</style>
<path class="st0" d="M3.9,0.1C3.6,0.4,3.4,0.7,3.1,1s-0.5,0.7-0.8,1C2,2.4,1.7,2.7,1.5,3C1.3,3.4,1,3.7,0.8,3.9c0.1,0,0.2,0,0.3,0
	c0.1,0,0.3,0,0.4,0c0.2,0,0.5,0,0.7-0.1c0.2,0,0.4-0.1,0.6-0.2c0.2-0.1,0.4-0.2,0.5-0.4C3.6,3.2,3.7,3,3.8,2.7h0.1L3.4,4.2
	c-0.4,0-0.7,0-1.1,0c-0.4,0-0.7,0-1.1,0c-0.2,0-0.4,0-0.6,0c-0.2,0-0.4,0-0.6,0L0,4.1l3.1-3.9H2.2c-0.2,0-0.4,0-0.6,0
	c-0.2,0-0.4,0.1-0.5,0.2C1,0.5,0.9,0.6,0.8,0.7C0.6,0.9,0.6,1.1,0.5,1.2H0.5c0-0.1,0-0.1,0-0.2c0-0.1,0-0.1,0-0.2c0-0.1,0-0.3,0-0.4
	c0-0.1,0-0.3,0.1-0.4l0.4,0c0.1,0,0.3,0,0.4,0c0.1,0,0.3,0,0.4,0h0.4C2.4,0,2.7,0,3,0S3.6,0,3.9,0.1L3.9,0.1z"/>
<path class="st0" d="M5,2.6c0.1,0,0.2,0,0.2,0.1c0.1,0.1,0.1,0.4,0,0.5c-0.1,0.1-0.4,0.1-0.5,0c-0.1-0.1-0.1-0.4,0-0.5
	C4.8,2.6,4.9,2.6,5,2.6z"/>
<path class="st0" d="M6.1,2.3c0-0.1,0.1-0.2,0.1-0.3c0.1-0.1,0.1-0.1,0.2-0.2c0.1,0,0.2-0.1,0.3-0.1c0.1,0,0.2,0,0.3,0
	c0.1,0,0.2,0,0.3,0c0.1,0,0.2,0.1,0.3,0.1C7.7,1.9,7.8,2,7.9,2.1c0.1,0.1,0.1,0.2,0.1,0.3v1.2c0,0.1,0,0.1,0.1,0.2
	c0,0.1,0.1,0.1,0.2,0.1c0.1,0,0.2,0,0.2-0.1c0.1,0,0.1-0.1,0.2-0.1l0.1,0.1L8.5,3.9C8.5,3.9,8.4,4,8.3,4C8.3,4.1,8.2,4.1,8.2,4.2
	C8.1,4.2,8,4.2,8,4.2c0,0-0.1,0-0.1,0c0,0-0.1-0.1-0.1-0.1c0,0-0.1-0.1-0.1-0.1c0,0-0.1-0.1-0.1-0.1C7.3,4,7.2,4,7,4.1
	C6.9,4.2,6.7,4.2,6.5,4.2c-0.1,0-0.2,0-0.3,0c-0.1,0-0.2-0.1-0.2-0.1C6,4,5.9,3.9,5.9,3.9c0-0.1-0.1-0.2-0.1-0.3
	c0-0.2,0-0.3,0.1-0.4C6.1,3.1,6.2,3,6.4,3c0.2-0.1,0.3-0.1,0.5-0.1c0.2,0,0.4,0,0.6,0V2.3c0-0.1,0-0.3-0.1-0.4
	C7.2,1.9,7.1,1.8,7,1.8C6.9,1.8,6.8,1.9,6.7,2C6.6,2.1,6.6,2.2,6.6,2.4L6.1,2.3z M7.5,3.1C7.3,3,7.2,3,7,3C7,3,6.9,3,6.8,3
	c-0.1,0-0.1,0-0.2,0.1c-0.1,0-0.1,0.1-0.2,0.2c0,0.1-0.1,0.2-0.1,0.2c0,0.1,0,0.2,0.1,0.3c0.1,0.1,0.2,0.1,0.3,0.1
	c0.1,0,0.3,0,0.4-0.1c0.1,0,0.2-0.1,0.2-0.1L7.5,3.1z"/>
<path class="st0" d="M8.6,4.1C8.7,4,8.9,4,9,3.9c0.1-0.1,0.2-0.2,0.4-0.3c0.1-0.1,0.2-0.2,0.3-0.3C9.8,3.2,9.9,3.1,10,3
	C9.9,2.9,9.8,2.7,9.7,2.6C9.6,2.5,9.5,2.4,9.4,2.3C9.3,2.2,9.2,2.1,9.1,2C9,1.9,8.8,1.9,8.7,1.9V1.8c0.1,0,0.3,0,0.4,0
	c0.1,0,0.3,0,0.4,0c0.1,0,0.2,0,0.4,0c0.1,0,0.2,0,0.4,0v0.1c-0.1,0-0.1,0-0.2,0.1C10,1.9,9.9,2,9.9,2.1c0,0.1,0,0.1,0,0.1
	c0,0.1,0.1,0.1,0.1,0.2c0,0.1,0.1,0.1,0.1,0.2c0,0,0.1,0.1,0.1,0.1c0,0,0.1-0.1,0.1-0.1c0.1,0,0.1-0.1,0.1-0.1c0,0,0.1-0.1,0.1-0.2
	c0-0.1,0-0.1,0-0.2c0-0.1,0-0.1-0.1-0.1c-0.1,0-0.1-0.1-0.2-0.1V1.8c0.1,0,0.2,0,0.3,0c0.1,0,0.2,0,0.3,0c0.1,0,0.2,0,0.3,0
	c0.1,0,0.2,0,0.3,0v0.1c-0.1,0-0.3,0.1-0.4,0.1c-0.1,0.1-0.2,0.2-0.3,0.2c-0.1,0.1-0.2,0.2-0.3,0.3c-0.1,0.1-0.2,0.2-0.3,0.3
	c0.1,0.1,0.2,0.2,0.3,0.3c0.1,0.1,0.2,0.3,0.3,0.4c0.1,0.1,0.2,0.2,0.4,0.3c0.1,0.1,0.3,0.2,0.5,0.2v0.1c-0.1,0-0.3,0-0.4,0
	c-0.1,0-0.3,0-0.4,0c-0.1,0-0.3,0-0.4,0c-0.1,0-0.3,0-0.4,0V4.1c0,0,0.1,0,0.1,0c0,0,0.1,0,0.1,0c0,0,0.1,0,0.1-0.1c0,0,0-0.1,0-0.1
	c0-0.1,0-0.1-0.1-0.2c0-0.1-0.1-0.1-0.1-0.2c-0.1-0.1-0.1-0.1-0.2-0.2c-0.1-0.1-0.1-0.1-0.1-0.2c0,0-0.1,0.1-0.2,0.2
	C9.9,3.3,9.8,3.4,9.7,3.4C9.7,3.5,9.6,3.6,9.6,3.7c0,0.1-0.1,0.1-0.1,0.2c0,0,0,0.1,0,0.1c0,0,0.1,0,0.1,0.1c0,0,0.1,0,0.1,0
	c0,0,0.1,0,0.1,0v0.1c-0.1,0-0.2,0-0.3,0c-0.1,0-0.2,0-0.3,0c-0.1,0-0.2,0-0.3,0C8.8,4.1,8.7,4.1,8.6,4.1L8.6,4.1z"/>
<path class="st0" d="M12.5,2.6c0-0.1,0-0.2,0-0.3c0-0.1,0-0.1-0.1-0.2C12.4,2,12.3,2,12.3,2c-0.1,0-0.2-0.1-0.3-0.1V1.8l1-0.1v1.9
	c0,0.1,0,0.2,0,0.2C13,3.9,13,4,13.1,4c0,0,0.1,0.1,0.2,0.1c0.1,0,0.2,0,0.2,0v0.1c-0.1,0-0.3,0-0.4,0c-0.1,0-0.3,0-0.4,0
	c-0.1,0-0.2,0-0.3,0c-0.1,0-0.2,0-0.3,0V4.1c0.1,0,0.1,0,0.2,0c0.1,0,0.1,0,0.1-0.1c0,0,0.1-0.1,0.1-0.1c0-0.1,0-0.2,0-0.2L12.5,2.6
	z"/>
<path class="st0" d="M13.8,3.3L13.8,3.3c0.1,0.1,0.2,0.2,0.3,0.3c0.1,0.1,0.2,0.2,0.2,0.2c0.1,0.1,0.2,0.1,0.3,0.2
	C14.7,4,14.8,4,14.9,4C15,4,15,4,15.1,4c0.1,0,0.1,0,0.2-0.1c0,0,0.1-0.1,0.1-0.1c0,0,0-0.1,0-0.2c0-0.1,0-0.2-0.1-0.3
	c-0.1-0.1-0.2-0.1-0.3-0.2c-0.1-0.1-0.2-0.1-0.4-0.1c-0.1,0-0.3-0.1-0.4-0.2c-0.1-0.1-0.2-0.1-0.3-0.2c-0.1-0.1-0.1-0.2-0.1-0.3
	c0-0.2,0.1-0.4,0.2-0.5c0.1-0.1,0.3-0.2,0.5-0.2c0.2,0,0.3,0,0.5,0.1c0.2,0,0.3,0.1,0.5,0.1l0,0.7h-0.1c0-0.1-0.1-0.2-0.2-0.2
	c-0.1-0.1-0.1-0.1-0.2-0.2C15,2,14.9,2,14.8,1.9c-0.1,0-0.2-0.1-0.3-0.1c-0.1,0-0.2,0-0.3,0.1c-0.1,0-0.1,0.1-0.1,0.3
	c0,0.1,0,0.2,0.1,0.2c0.1,0.1,0.2,0.1,0.3,0.2c0.1,0,0.2,0.1,0.4,0.1c0.1,0,0.3,0.1,0.4,0.2C15.4,3,15.5,3,15.6,3.1
	c0.1,0.1,0.1,0.2,0.1,0.4c0,0.1,0,0.2-0.1,0.4c0,0.1-0.1,0.2-0.2,0.2c-0.1,0.1-0.2,0.1-0.3,0.1c-0.1,0-0.2,0-0.4,0
	c-0.1,0-0.2,0-0.3,0c-0.1,0-0.2,0-0.3-0.1s-0.2,0-0.2-0.1c-0.1,0-0.1,0-0.2,0L13.8,3.3z"/>
</svg>
