<svg id="Layer_1" data-name="Layer 1" xmlns="http://www.w3.org/2000/svg" viewBox="0 0 291.82 78.55"><title>zaxis_logo</title><path d="M132.42,192.38q-7.38,8.56-15.12,18t-15.12,18.88Q94.79,238.7,88,247.55T75.56,263.9a22.43,22.43,0,0,0,4.81.59c2,.08,4.81.12,8.32.12a92.67,92.67,0,0,0,13.25-.94,43.86,43.86,0,0,0,12-3.46,31.14,31.14,0,0,0,9.73-7,31.79,31.79,0,0,0,6.68-11.37h2.35l-8.91,26.26q-10.32-.22-20.58-.35t-20.57-.12q-5.4,0-10.73.12t-10.73.35l-.94-1.4,57.1-72.23H101.59a62,62,0,0,0-10.32.88,32.87,32.87,0,0,0-9.49,3.11,22.52,22.52,0,0,0-7.39,6,21.07,21.07,0,0,0-4.1,9.67H68.64A31.29,31.29,0,0,1,68.7,210c.12-1.41.18-2.77.18-4.1,0-2.5.12-5,.35-7.45s.55-4.94.94-7.44l7.68.23q4,.12,8,.18t7.56.06h6.69q8.09,0,15.76-.12T131.6,191Z" transform="translate(-60.2 -190.98)"/><path d="M152.36,239.52a6.43,6.43,0,0,1,4.63,1.87,6.66,6.66,0,0,1,0,9.38,6.65,6.65,0,0,1-9.27,0,6.66,6.66,0,0,1,0-9.38A6.43,6.43,0,0,1,152.36,239.52Z" transform="translate(-60.2 -190.98)"/><path d="M173.34,233.42a15.78,15.78,0,0,1,2.64-5.8,11.54,11.54,0,0,1,3.93-3.29,14.42,14.42,0,0,1,5-1.4,56.42,56.42,0,0,1,6-.3,28.64,28.64,0,0,1,6,.65,16.36,16.36,0,0,1,5.39,2.17,11.62,11.62,0,0,1,3.87,4,12.13,12.13,0,0,1,1.46,6.16v21.69a6.67,6.67,0,0,0,1.18,3.92,4.09,4.09,0,0,0,3.63,1.7,6.79,6.79,0,0,0,4.16-1.34c1.21-.9,2.37-1.78,3.46-2.64l1.17,1.29L218.54,263q-1.59,1.59-3.34,3.05a22.44,22.44,0,0,1-3.58,2.46,7.33,7.33,0,0,1-3.57,1,4.84,4.84,0,0,1-2.47-.76,18.18,18.18,0,0,1-2.52-1.82,22.9,22.9,0,0,1-2.28-2.23c-.71-.78-1.33-1.44-1.88-2a54.37,54.37,0,0,1-8.44,4.69,22.19,22.19,0,0,1-9.15,2.11,13.82,13.82,0,0,1-4.74-.82,12.55,12.55,0,0,1-4-2.35,11.51,11.51,0,0,1-2.81-3.63,10.54,10.54,0,0,1-1.06-4.81,10.77,10.77,0,0,1,2.7-7.68,17.31,17.31,0,0,1,7-4.39,40.8,40.8,0,0,1,9.73-2.06q5.44-.53,11-.64v-8.91a8.37,8.37,0,0,0-2.7-6.68,10,10,0,0,0-6.8-2.35,5.38,5.38,0,0,0-4.81,3,13.61,13.61,0,0,0-1.75,6.92Zm25.44,14.3a29.87,29.87,0,0,0-7.85-1.05,19.4,19.4,0,0,0-4.46.52,12.4,12.4,0,0,0-4,1.71,9.46,9.46,0,0,0-2.88,3,8.25,8.25,0,0,0-1.11,4.39q0,4,2.76,5.69a11.47,11.47,0,0,0,6.15,1.7,15.32,15.32,0,0,0,6.86-1.53,29.19,29.19,0,0,0,4.51-2.58Z" transform="translate(-60.2 -190.98)"/><path d="M219.77,266.72a25.38,25.38,0,0,0,7.56-3.58,56.48,56.48,0,0,0,6.57-5.33q3.1-2.94,6-6A77.28,77.28,0,0,1,246,246q-2.7-2.93-5.27-6.27a75.63,75.63,0,0,0-5.46-6.33A33.24,33.24,0,0,0,229,228.2a19.39,19.39,0,0,0-7.79-2.75V224q3.75.35,7.5.41t7.5.06q3.28,0,6.51-.06t6.51-.41v1.52a10.86,10.86,0,0,0-3,1.18,2.85,2.85,0,0,0-1.76,2.58,6.31,6.31,0,0,0,.88,2.63,34.8,34.8,0,0,0,2.11,3.52c.82,1.21,1.66,2.35,2.52,3.4a18.39,18.39,0,0,0,2.11,2.29c.78-.78,1.64-1.6,2.58-2.47a31.87,31.87,0,0,0,2.64-2.69,17.81,17.81,0,0,0,2.11-3,6.86,6.86,0,0,0,.88-3.34,3,3,0,0,0-1.58-2.7,15.41,15.41,0,0,0-3.11-1.41V224q3,.35,6.15.41c2.07,0,4.13.06,6.16.06,1.8,0,3.63,0,5.51-.06a52.11,52.11,0,0,0,5.51-.41v1.41a21.44,21.44,0,0,0-7.21,2.69,42.74,42.74,0,0,0-6.33,4.63c-2,1.76-3.93,3.6-5.81,5.51s-3.75,3.7-5.62,5.34q2.22,2.7,4.86,6.39a76,76,0,0,0,5.81,7.15,42.13,42.13,0,0,0,7,6.16,20,20,0,0,0,8.56,3.4v1.4q-3.75-.22-7.44-.35t-7.45-.12q-3.87,0-7.74.12t-7.74.35v-1.4a10.57,10.57,0,0,0,2.11-.24,8.51,8.51,0,0,0,2.23-.76,5.9,5.9,0,0,0,1.76-1.29,2.58,2.58,0,0,0,.7-1.82,7.92,7.92,0,0,0-1-3.57,30.26,30.26,0,0,0-2.41-3.87q-1.4-1.93-2.87-3.75c-1-1.22-1.78-2.29-2.4-3.23-.78.71-1.82,1.66-3.11,2.87s-2.56,2.51-3.81,3.87a29.94,29.94,0,0,0-3.22,4.17,7.29,7.29,0,0,0-1.35,3.86,2.72,2.72,0,0,0,.64,1.82,4.35,4.35,0,0,0,1.53,1.17,7.25,7.25,0,0,0,1.93.59,12,12,0,0,0,2,.18v1.4c-1.88-.15-3.74-.27-5.57-.35s-3.7-.12-5.57-.12-3.89,0-5.81.12-3.85.2-5.8.35Z" transform="translate(-60.2 -190.98)"/><path d="M291.64,238.46q0-2.82-.18-5a8.3,8.3,0,0,0-1-3.64,6.72,6.72,0,0,0-2.64-2.4,13.47,13.47,0,0,0-4.81-1.29v-1.64l17.83-1.17v34.47a18.36,18.36,0,0,0,.46,4.63,4.82,4.82,0,0,0,1.59,2.58,6.81,6.81,0,0,0,2.87,1.23,30.28,30.28,0,0,0,4.34.47v1.4c-2.74-.15-5.49-.27-8.27-.35s-5.53-.12-8.26-.12q-2.7,0-5.28.12c-1.72.08-3.48.2-5.28.35v-1.4a26.08,26.08,0,0,0,4-.47,6.36,6.36,0,0,0,2.7-1.23,5,5,0,0,0,1.52-2.58,18.29,18.29,0,0,0,.47-4.63Z" transform="translate(-60.2 -190.98)"/><path d="M315.91,252.76h1.64a44.28,44.28,0,0,0,3.69,4.81,30.07,30.07,0,0,0,4.52,4.22,23.77,23.77,0,0,0,5.27,3,15.44,15.44,0,0,0,6,1.17,16.67,16.67,0,0,0,3.11-.29,9.75,9.75,0,0,0,2.87-1,6.14,6.14,0,0,0,2.11-1.87,5,5,0,0,0,.82-2.93,6.05,6.05,0,0,0-2.17-4.81,21.18,21.18,0,0,0-5.33-3.28,70.18,70.18,0,0,0-7-2.64,42.17,42.17,0,0,1-7-2.93,18.89,18.89,0,0,1-5.34-4.17,9.2,9.2,0,0,1-2.17-6.33q0-6.33,3.93-9.73a14.63,14.63,0,0,1,9.91-3.4,31.36,31.36,0,0,1,8.62,1.18,38.91,38.91,0,0,0,8.61,1.4l.71,12.43h-1.53a23.42,23.42,0,0,0-2.93-4.28,22.53,22.53,0,0,0-3.93-3.63,21.27,21.27,0,0,0-4.63-2.58,13.21,13.21,0,0,0-5-1,10.81,10.81,0,0,0-5.28,1.29q-2.34,1.29-2.34,4.69a4.79,4.79,0,0,0,2.17,4,26.13,26.13,0,0,0,5.33,2.93q3.17,1.35,7,2.64a39.74,39.74,0,0,1,7,3.11,19.2,19.2,0,0,1,5.33,4.46,9.9,9.9,0,0,1,2.17,6.5,14.72,14.72,0,0,1-1.35,6.74,10.68,10.68,0,0,1-3.69,4.17,16,16,0,0,1-5.45,2.16,32.63,32.63,0,0,1-6.63.65,34.66,34.66,0,0,1-5.39-.41c-1.72-.27-3.34-.61-4.87-1s-2.95-.74-4.28-1.05-2.5-.55-3.51-.71Z" transform="translate(-60.2 -190.98)"/></svg>